<mxfile host="app.diagrams.net" modified="2023-09-08T12:18:37.954Z" agent="Mozilla/5.0 (Macintosh; Intel Mac OS X 10_15_7) AppleWebKit/537.36 (KHTML, like Gecko) Chrome/116.0.0.0 Safari/537.36" version="21.7.2" etag="tVCCen7GA20DqVLse96R" type="github">
  <diagram name="Page-1" id="dPzCXjngYqBJXUgV4j_H">
    <mxGraphModel>
      <root>
        <mxCell id="0" />
        <mxCell id="1" parent="0" />
      </root>
    </mxGraphModel>
  </diagram>
</mxfile>
